<svg width="1728" height="1338" viewBox="0 0 1728 1338" fill="none" xmlns="http://www.w3.org/2000/svg">
<path d="M3295.84 131.694L3005.6 140.096L2694.22 131.694L2509.48 101.108C2352.89 75.1828 2195.05 69.0611 2037.73 82.8121L1824.52 76.3378L1594.43 108.854L1542.82 112.729C1441.02 120.37 1338.96 111.797 1238.45 87.1631C1193.07 76.0428 1146.96 72.6771 1101.06 77.1341L1064.94 80.6404C992.534 87.6698 919.822 83.5374 848.015 68.3128L600.788 15.8943C523.823 -0.42445 445.815 -3.68619 368.332 6.17455L234.918 23.1533C113.125 38.6531 -9.3237 39.9731 -131.26 27.1006V803.093L-57.3774 960.964V1258C-57.3774 1302.18 -32.7672 1338 -2.40871 1338H2927.41C2957.75 1338 2982.38 1302.18 2982.38 1258V987.11L3304.29 855.39L3295.84 131.694Z" fill="#1E1E1E"/>
</svg>
